{"glyphs":{"0":{"ha":985,"x_min":0,"x_max":0,"o":"m 426 -25 b 86 504 160 -25 29 171 b 599 1024 142 836 335 1024 b 940 504 863 1024 995 836 b 426 -25 884 171 690 -25 m 459 175 b 689 504 565 175 651 281 b 567 826 726 722 672 826 b 336 504 462 826 373 722 b 459 175 299 281 354 175 "},"1":{"ha":691,"x_min":0,"x_max":0,"o":"m 478 0 l 235 0 l 365 782 l 359 782 l 110 644 l 145 855 l 420 1010 l 646 1010 "},"2":{"ha":886,"x_min":0,"x_max":0,"o":"m 40 176 l 463 498 b 626 699 558 573 614 624 b 508 834 640 783 589 834 b 342 690 423 834 357 780 l 110 690 b 540 1024 145 896 316 1024 b 867 719 769 1024 897 901 b 523 315 847 603 773 506 l 384 203 l 382 197 l 792 197 l 759 0 l 11 0 "},"3":{"ha":926,"x_min":0,"x_max":0,"o":"m 405 -14 b 51 297 168 -14 21 114 l 293 297 b 419 184 283 230 337 184 b 599 319 512 184 587 246 b 453 427 610 390 551 427 l 350 427 l 379 601 l 472 601 b 650 732 563 601 637 655 b 547 834 660 793 625 834 b 372 718 465 834 383 787 l 140 718 b 559 1024 171 898 348 1024 b 883 722 782 1024 909 884 b 647 526 864 605 773 542 l 647 518 b 846 274 786 501 868 403 b 405 -14 819 107 636 -14 "},"4":{"ha":958,"x_min":0,"x_max":0,"o":"m 58 358 l 581 1010 l 888 1010 l 780 360 l 901 360 l 869 168 l 748 168 l 720 0 l 487 0 l 515 168 l 27 168 m 617 752 l 609 752 l 303 368 l 301 360 l 552 360 "},"5":{"ha":912,"x_min":0,"x_max":0,"o":"m 396 -14 b 64 297 176 -14 37 116 l 301 297 b 427 174 292 223 348 174 b 611 335 520 174 595 238 b 479 498 627 433 572 498 b 325 425 420 498 360 471 l 115 466 l 250 1010 l 898 1010 l 866 813 l 419 813 l 356 575 l 362 575 b 587 672 405 631 491 672 b 846 342 768 672 879 534 b 396 -14 814 135 632 -14 "},"6":{"ha":934,"x_min":0,"x_max":0,"o":"m 425 -14 b 79 500 198 -13 16 127 b 581 1024 135 828 329 1024 b 914 720 795 1024 923 890 l 678 720 b 567 816 677 785 631 816 b 320 513 440 816 353 695 l 328 526 b 600 666 385 617 491 666 b 862 330 786 666 895 523 b 425 -14 828 125 651 -14 m 434 174 b 629 348 530 174 615 249 b 508 496 642 433 594 496 b 312 322 413 496 327 420 b 434 174 299 235 349 174 "},"7":{"ha":837,"x_min":0,"x_max":0,"o":"m 595 807 l 597 813 l 121 813 l 153 1010 l 882 1010 l 849 812 l 305 0 l 54 0 "},"8":{"ha":937,"x_min":0,"x_max":0,"o":"m 404 -14 b 42 275 167 -14 14 110 b 309 520 63 399 181 500 l 309 527 b 159 753 203 548 140 641 b 573 1024 185 909 360 1024 b 899 749 787 1024 925 907 b 672 527 881 636 786 547 l 672 520 b 857 271 795 500 879 398 b 404 -14 830 109 640 -14 m 430 159 b 605 295 520 159 592 217 b 476 429 618 374 564 429 b 301 291 388 429 314 371 b 430 159 288 214 342 159 m 503 601 b 656 726 581 601 644 654 b 547 845 669 797 623 845 b 392 723 469 845 403 794 b 503 601 379 651 427 601 "},"9":{"ha":934,"x_min":0,"x_max":0,"o":"m 552 1024 b 898 513 780 1023 961 884 b 396 -14 842 182 649 -14 b 63 294 182 -14 54 120 l 299 294 b 411 194 300 224 346 194 b 657 500 538 194 624 315 l 650 488 b 377 348 593 397 487 348 b 115 682 191 348 83 490 b 552 1024 149 886 327 1024 m 544 836 b 348 664 448 836 362 762 b 470 518 336 580 384 518 b 665 690 564 518 651 594 b 544 836 678 775 629 836 "},"A":{"ha":1072,"x_min":0,"x_max":0,"o":"m -31 0 l 478 1010 l 803 1010 l 976 0 l 714 0 l 683 212 l 334 212 l 232 0 m 655 398 l 603 756 l 595 756 l 423 398 "},"Ä":{"ha":1072,"x_min":0,"x_max":0,"o":"m -31 0 l 478 1010 l 803 1010 l 976 0 l 714 0 l 683 212 l 334 212 l 232 0 m 655 398 l 603 756 l 595 756 l 423 398 m 826 1106 b 720 1228 758 1106 709 1162 b 835 1321 729 1280 780 1321 b 938 1199 903 1321 949 1266 b 826 1106 930 1148 880 1106 m 518 1106 b 412 1228 450 1106 402 1162 b 527 1321 422 1280 472 1321 b 630 1199 595 1321 641 1266 b 518 1106 622 1148 573 1106 "},"B":{"ha":922,"x_min":0,"x_max":0,"o":"m 181 1010 l 602 1010 b 905 755 829 1010 930 907 b 679 536 884 640 793 559 l 677 526 b 865 283 799 521 889 428 b 467 0 838 119 690 0 l 13 0 m 442 197 b 615 311 546 197 604 240 b 485 437 627 388 579 437 l 329 437 l 291 197 m 492 595 b 648 707 571 595 636 637 b 532 816 658 775 613 816 l 393 816 l 357 595 "},"C":{"ha":1056,"x_min":0,"x_max":0,"o":"m 793 644 b 635 810 798 746 741 810 b 334 491 482 810 367 691 b 506 200 303 297 370 200 b 744 355 622 200 711 259 l 989 355 b 493 -14 941 177 764 -14 b 90 519 213 -14 35 180 b 638 1024 144 847 376 1024 b 1036 644 890 1024 1051 886 "},"D":{"ha":1014,"x_min":0,"x_max":0,"o":"m 13 0 l 181 1010 l 548 1010 b 967 493 857 1010 1020 814 b 392 0 915 182 700 0 m 407 208 b 727 518 577 208 690 294 b 512 802 763 730 686 802 l 391 802 l 292 208 "},"E":{"ha":857,"x_min":0,"x_max":0,"o":"m 181 1010 l 885 1010 l 852 812 l 392 812 l 358 605 l 782 605 l 749 406 l 325 406 l 291 198 l 751 198 l 718 0 l 13 0 "},"F":{"ha":812,"x_min":0,"x_max":0,"o":"m 181 1010 l 871 1010 l 837 812 l 392 812 l 358 605 l 760 605 l 726 406 l 325 406 l 257 0 l 13 0 "},"G":{"ha":1065,"x_min":0,"x_max":0,"o":"m 789 680 b 635 810 781 762 733 810 b 336 507 488 810 368 699 b 518 200 304 312 367 200 b 761 374 651 200 742 268 l 561 374 l 591 552 l 1026 552 l 1004 419 b 486 -14 959 147 747 -14 b 86 504 197 -14 34 184 b 656 1024 141 834 386 1024 b 1036 680 889 1024 1046 881 l 789 680 "},"H":{"ha":1039,"x_min":0,"x_max":0,"o":"m 181 1010 l 425 1010 l 358 605 l 756 605 l 823 1010 l 1067 1010 l 899 0 l 655 0 l 723 406 l 325 406 l 257 0 l 13 0 "},"I":{"ha":397,"x_min":0,"x_max":0,"o":"m 257 0 l 13 0 l 181 1010 l 425 1010 "},"J":{"ha":804,"x_min":0,"x_max":0,"o":"m 832 1010 l 717 311 b 300 -14 684 114 516 -14 b 11 300 111 -14 -25 83 l 254 300 b 343 179 244 220 276 179 b 476 313 414 179 461 226 l 591 1010 "},"K":{"ha":975,"x_min":0,"x_max":0,"o":"m 181 1010 l 425 1010 l 355 583 l 368 583 l 772 1010 l 1060 1010 l 628 559 l 899 0 l 607 0 l 423 397 l 303 272 l 257 0 l 13 0 "},"L":{"ha":791,"x_min":0,"x_max":0,"o":"m 181 1010 l 425 1010 l 291 198 l 711 198 l 678 0 l 13 0 "},"M":{"ha":1282,"x_min":0,"x_max":0,"o":"m 483 1010 l 636 385 l 648 385 l 1008 1010 l 1310 1010 l 1143 0 l 905 0 l 1008 620 l 1000 620 l 655 6 l 504 6 l 364 624 l 356 624 l 251 0 l 13 0 l 181 1010 "},"N":{"ha":1013,"x_min":0,"x_max":0,"o":"m 873 0 l 666 0 l 362 583 l 355 583 l 257 0 l 13 0 l 181 1010 l 391 1010 l 693 428 l 701 428 l 797 1010 l 1041 1010 "},"O":{"ha":1095,"x_min":0,"x_max":0,"o":"m 1048 489 b 497 -14 993 163 761 -14 b 89 518 217 -14 33 179 b 642 1024 142 844 376 1024 b 1048 489 920 1024 1104 830 m 804 518 b 633 810 835 708 771 810 b 333 489 478 810 365 692 b 506 200 299 297 368 200 b 804 518 658 200 770 315 "},"Ö":{"ha":1095,"x_min":0,"x_max":0,"o":"m 1048 489 b 497 -14 993 163 761 -14 b 89 518 217 -14 33 179 b 642 1024 142 844 376 1024 b 1048 489 920 1024 1104 830 m 804 518 b 633 810 835 708 771 810 b 333 489 478 810 365 692 b 506 200 299 297 368 200 b 804 518 658 200 770 315 m 837 1106 b 731 1228 769 1106 721 1162 b 846 1321 741 1280 791 1321 b 949 1199 914 1321 960 1266 b 837 1106 942 1148 892 1106 m 530 1106 b 424 1228 461 1106 413 1162 b 538 1321 433 1280 483 1321 b 641 1199 607 1321 653 1266 b 530 1106 634 1148 584 1106 "},"P":{"ha":905,"x_min":0,"x_max":0,"o":"m 181 1010 l 598 1010 b 908 660 826 1010 943 869 b 474 314 874 450 708 314 l 310 314 l 257 0 l 13 0 m 462 506 b 656 660 573 506 641 567 b 513 813 671 755 623 813 l 393 813 l 342 506 "},"Q":{"ha":1099,"x_min":0,"x_max":0,"o":"m 1048 489 b 835 102 1019 317 941 187 l 958 -79 l 737 -79 l 672 14 b 497 -14 617 -4 557 -14 b 89 518 217 -14 33 179 b 642 1024 142 844 376 1024 b 1048 489 920 1024 1104 830 m 654 363 l 704 289 b 804 518 753 342 788 420 b 633 810 835 708 771 810 b 333 489 478 810 365 692 b 506 200 299 297 368 200 b 556 205 523 200 540 202 l 457 363 "},"R":{"ha":930,"x_min":0,"x_max":0,"o":"m 181 1010 l 598 1010 b 910 674 826 1010 945 881 b 688 385 888 535 807 436 l 834 0 l 567 0 l 440 346 l 315 346 l 257 0 l 13 0 m 468 538 b 658 674 577 538 643 580 b 513 813 673 767 622 813 l 393 813 l 347 538 "},"S":{"ha":917,"x_min":0,"x_max":0,"o":"m 676 705 b 542 822 681 779 637 822 b 384 727 447 822 394 783 b 514 617 371 668 425 636 l 597 597 b 855 293 788 553 882 454 b 403 -13 823 101 655 -13 b 40 336 150 -13 4 101 l 274 336 b 434 189 262 239 327 189 b 608 293 533 189 598 232 b 464 406 618 350 571 381 l 363 431 b 128 710 196 471 103 557 b 576 1024 159 899 344 1024 b 909 705 810 1024 940 897 l 676 705 "},"T":{"ha":941,"x_min":0,"x_max":0,"o":"m 148 1010 l 1002 1010 l 968 812 l 662 812 l 528 0 l 287 0 l 421 812 l 114 812 "},"U":{"ha":1008,"x_min":0,"x_max":0,"o":"m 1036 1010 l 928 359 b 438 -13 891 133 693 -13 b 73 359 182 -13 36 133 l 181 1010 l 425 1010 l 320 380 b 474 199 304 275 365 199 b 687 380 583 199 671 275 l 792 1010 "},"Ü":{"ha":1008,"x_min":0,"x_max":0,"o":"m 1036 1010 l 928 359 b 438 -13 891 133 693 -13 b 73 359 182 -13 36 133 l 181 1010 l 425 1010 l 320 380 b 474 199 304 275 365 199 b 687 380 583 199 671 275 l 792 1010 m 793 1106 b 687 1228 725 1106 676 1162 b 801 1321 696 1280 747 1321 b 905 1199 870 1321 916 1266 b 793 1106 897 1148 847 1106 m 485 1106 b 379 1228 417 1106 369 1162 b 494 1321 389 1280 439 1321 b 597 1199 562 1321 608 1266 b 485 1106 589 1148 540 1106 "},"V":{"ha":1072,"x_min":0,"x_max":0,"o":"m 513 270 l 522 270 l 871 1010 l 1144 1010 l 635 0 l 310 0 l 137 1010 l 410 1010 "},"W":{"ha":1479,"x_min":0,"x_max":0,"o":"m 129 1010 l 399 1010 l 442 348 l 451 348 l 734 1010 l 954 1010 l 1019 347 l 1027 347 l 1289 1010 l 1559 1010 l 1097 0 l 862 0 l 783 613 l 775 613 l 490 0 l 255 0 "},"X":{"ha":1026,"x_min":0,"x_max":0,"o":"m 550 691 l 558 691 l 798 1010 l 1080 1010 l 692 505 l 922 0 l 649 0 l 512 323 l 505 323 l 262 0 l -23 0 l 375 505 l 153 1010 l 419 1010 "},"Y":{"ha":1034,"x_min":0,"x_max":0,"o":"m 403 1010 l 546 587 l 557 587 l 839 1010 l 1112 1010 l 631 337 l 575 0 l 332 0 l 389 337 l 131 1010 "},"Z":{"ha":945,"x_min":0,"x_max":0,"o":"m 34 139 l 636 812 l 145 812 l 178 1010 l 977 1010 l 954 871 l 350 198 l 842 198 l 809 0 l 10 0 "},"a":{"ha":813,"x_min":0,"x_max":0,"o":"m 225 -13 b 13 210 81 -13 -12 61 b 334 447 41 378 179 435 b 525 515 465 459 517 469 l 525 517 b 442 597 533 568 502 597 b 315 519 379 597 332 568 l 94 527 b 472 767 135 665 268 767 b 766 515 664 767 793 675 l 680 0 l 453 0 l 471 106 l 465 106 b 225 -13 411 28 330 -13 m 327 145 b 486 269 403 145 473 195 l 497 341 b 366 311 469 327 410 318 b 244 222 295 300 251 271 b 327 145 236 173 270 145 "},"ä":{"ha":813,"x_min":0,"x_max":0,"o":"m 225 -13 b 13 210 81 -13 -12 61 b 334 447 41 378 179 435 b 525 515 465 459 517 469 l 525 517 b 442 597 533 568 502 597 b 315 519 379 597 332 568 l 94 527 b 472 767 135 665 268 767 b 766 515 664 767 793 675 l 680 0 l 453 0 l 471 106 l 465 106 b 225 -13 411 28 330 -13 m 662 854 b 556 976 594 854 545 909 b 671 1068 566 1028 616 1068 b 774 947 739 1068 785 1014 b 662 854 766 895 717 854 m 355 854 b 249 976 286 854 238 909 b 363 1068 258 1028 308 1068 b 466 947 432 1068 477 1014 b 355 854 459 895 409 854 m 327 145 b 486 269 403 145 473 195 l 497 341 b 366 311 469 327 410 318 b 244 222 295 300 251 271 b 327 145 236 173 270 145 "},"b":{"ha":889,"x_min":0,"x_max":0,"o":"m 181 1010 l 422 1010 l 360 628 l 364 628 b 602 767 404 697 482 767 b 838 378 761 767 883 646 b 471 -11 796 120 638 -11 b 281 123 356 -11 299 53 l 272 123 l 252 0 l 13 0 m 313 379 b 419 177 293 256 331 177 b 591 379 508 177 571 256 b 485 579 611 501 575 579 b 313 379 397 579 332 503 "},"c":{"ha":829,"x_min":0,"x_max":0,"o":"m 365 -14 b 47 376 125 -14 8 145 b 495 767 85 609 256 767 b 795 460 705 767 821 646 l 569 460 b 468 584 573 537 536 584 b 293 379 382 584 314 512 b 399 173 271 244 314 173 b 544 297 466 173 520 217 l 768 297 b 365 -14 730 109 579 -14 "},"ç":{"ha":829,"x_min":0,"x_max":0,"o":"m 404 -40 b 503 -161 474 -51 515 -96 b 198 -327 487 -263 373 -327 l 214 -228 b 367 -167 304 -228 357 -208 b 283 -98 375 -128 347 -107 l 317 -12 b 47 376 109 8 11 161 b 495 767 85 609 256 767 b 795 460 705 767 821 646 l 569 460 b 468 584 573 537 536 584 b 293 379 382 584 314 512 b 399 173 271 244 314 173 b 544 297 466 173 520 217 l 768 297 b 414 -12 733 124 602 5 "},"d":{"ha":889,"x_min":0,"x_max":0,"o":"m 289 -11 b 50 378 121 -11 8 120 b 416 767 95 646 258 767 b 607 628 536 767 590 697 l 613 628 l 676 1010 l 917 1010 l 750 0 l 511 0 l 531 123 l 524 123 b 289 -11 482 53 403 -11 m 403 177 b 577 379 490 177 556 256 b 469 579 597 503 558 579 b 298 379 380 579 318 501 b 403 177 278 256 313 177 "},"e":{"ha":837,"x_min":0,"x_max":0,"o":"m 365 -14 b 47 376 128 -14 6 134 b 488 767 86 611 260 767 b 790 381 703 767 832 630 l 781 321 l 276 321 l 275 312 b 399 160 259 216 305 160 b 544 237 462 160 516 186 l 763 231 b 365 -14 710 82 565 -14 m 579 461 b 466 593 591 538 545 593 b 302 461 388 593 319 536 "},"f":{"ha":547,"x_min":0,"x_max":0,"o":"m 541 580 l 396 580 l 299 0 l 59 0 l 155 580 l 54 580 l 84 758 l 185 758 l 191 796 b 495 1057 219 972 341 1057 b 652 1036 562 1057 625 1044 l 585 860 b 518 870 567 865 542 870 b 433 800 463 870 441 843 l 426 758 l 571 758 "},"g":{"ha":891,"x_min":0,"x_max":0,"o":"m 319 -300 b -3 -69 102 -300 -5 -202 l 228 -56 b 352 -133 234 -104 274 -133 b 513 -1 433 -133 499 -98 l 535 132 l 527 132 b 292 10 487 62 404 10 b 51 380 126 10 8 122 b 417 767 95 646 259 767 b 609 628 537 767 590 697 l 616 628 l 637 758 l 877 758 l 751 -3 b 319 -300 720 -196 546 -300 m 404 186 b 577 380 492 186 557 258 b 469 579 596 503 557 579 b 298 380 379 579 318 501 b 404 186 279 258 315 186 "},"h":{"ha":882,"x_min":0,"x_max":0,"o":"m 256 0 l 15 0 l 182 1010 l 416 1010 l 352 618 l 360 618 b 613 767 409 712 498 767 b 828 483 771 767 857 654 l 747 0 l 506 0 l 579 436 b 479 570 592 520 556 570 b 328 432 402 570 342 518 "},"i":{"ha":394,"x_min":0,"x_max":0,"o":"m 140 758 l 381 758 l 254 0 l 13 0 m 277 846 b 169 962 209 846 159 899 b 309 1077 179 1025 241 1077 b 417 962 378 1077 425 1025 b 277 846 408 899 345 846 "},"j":{"ha":394,"x_min":0,"x_max":0,"o":"m 381 758 l 249 -32 b -105 -284 218 -218 85 -284 b -151 -283 -119 -284 -134 -284 l -121 -100 b -91 -102 -110 -101 -101 -102 b 9 -27 -25 -102 1 -77 l 140 758 m 276 846 b 168 961 208 846 158 898 b 308 1076 178 1025 240 1076 b 416 961 377 1076 424 1025 b 276 846 407 898 344 846 "},"k":{"ha":825,"x_min":0,"x_max":0,"o":"m 181 1010 l 422 1010 l 335 486 l 345 486 l 605 758 l 878 758 l 554 427 l 763 0 l 484 0 l 351 287 l 292 228 l 254 0 l 13 0 "},"l":{"ha":394,"x_min":0,"x_max":0,"o":"m 254 0 l 13 0 l 181 1010 l 422 1010 "},"m":{"ha":1286,"x_min":0,"x_max":0,"o":"m 141 758 l 370 758 l 348 618 l 356 618 b 595 767 402 711 490 767 b 776 618 699 767 771 709 l 784 618 b 1038 767 827 709 925 767 b 1236 510 1180 767 1263 670 l 1151 0 l 910 0 l 987 455 b 900 571 998 530 962 571 b 776 452 834 571 786 525 l 699 0 l 467 0 l 545 457 b 458 571 555 528 521 571 b 332 448 395 571 343 523 l 256 0 l 15 0 "},"n":{"ha":881,"x_min":0,"x_max":0,"o":"m 256 0 l 15 0 l 141 758 l 370 758 l 348 618 l 356 618 b 611 767 403 711 499 767 b 827 483 770 767 855 654 l 746 0 l 505 0 l 577 436 b 478 570 591 519 555 570 b 328 432 402 570 342 518 "},"o":{"ha":860,"x_min":0,"x_max":0,"o":"m 366 -14 b 47 378 127 -14 8 144 b 493 767 85 611 255 767 b 812 375 731 767 850 609 b 366 -14 773 143 604 -14 m 394 168 b 567 380 482 168 546 253 b 466 589 587 504 553 589 b 292 376 377 589 313 503 b 394 168 272 252 306 168 "},"ö":{"ha":860,"x_min":0,"x_max":0,"o":"m 366 -14 b 47 378 127 -14 8 144 b 493 767 85 611 255 767 b 812 375 731 767 850 609 b 366 -14 773 143 604 -14 m 394 168 b 567 380 482 168 546 253 b 466 589 587 504 553 589 b 292 376 377 589 313 503 b 394 168 272 252 306 168 m 677 854 b 571 976 609 854 560 909 b 686 1068 581 1028 631 1068 b 789 947 754 1068 800 1014 b 677 854 781 895 731 854 m 369 854 b 263 976 301 854 253 909 b 378 1068 273 1028 323 1068 b 481 947 446 1068 492 1014 b 369 854 473 895 424 854 "},"p":{"ha":892,"x_min":0,"x_max":0,"o":"m 142 758 l 381 758 l 360 628 l 367 628 b 605 767 406 697 485 767 b 841 378 763 767 885 646 b 473 -11 798 120 640 -11 b 284 123 359 -11 301 53 l 277 123 l 210 -284 l -33 -284 m 315 379 b 422 177 295 256 333 177 b 594 379 510 177 572 256 b 488 579 613 501 577 579 b 315 379 399 579 334 503 "},"q":{"ha":890,"x_min":0,"x_max":0,"o":"m 529 123 l 523 123 b 289 -11 482 53 403 -11 b 50 378 121 -11 7 120 b 416 767 94 646 257 767 b 607 628 536 767 590 697 l 615 628 l 637 758 l 875 758 l 703 -284 l 462 -284 m 403 177 b 576 379 491 177 556 256 b 470 579 597 503 558 579 b 298 379 380 579 318 501 b 403 177 277 256 314 177 "},"r":{"ha":585,"x_min":0,"x_max":0,"o":"m 140 758 l 374 758 l 351 619 l 359 619 b 560 768 403 720 477 768 b 626 760 583 768 606 764 l 591 549 b 498 562 569 558 528 562 b 323 411 412 562 338 502 l 254 0 l 13 0 "},"s":{"ha":799,"x_min":0,"x_max":0,"o":"m 543 520 b 451 602 544 569 508 602 b 327 528 389 602 332 571 b 396 474 322 504 334 487 l 538 446 b 732 230 684 417 751 346 b 351 -14 706 80 549 -14 b 21 232 129 -14 13 83 l 255 238 b 357 153 257 182 295 154 b 486 229 425 151 480 185 b 409 283 490 257 471 271 l 281 308 b 88 539 134 336 68 417 b 449 767 112 686 251 767 b 761 526 661 767 774 676 "},"t":{"ha":551,"x_min":0,"x_max":0,"o":"m 537 580 l 400 580 l 344 238 b 395 178 336 193 356 178 b 449 185 413 178 438 183 l 457 11 b 330 -11 432 3 388 -8 b 99 212 157 -18 71 59 l 160 580 l 59 580 l 89 758 l 189 758 l 219 939 l 460 939 l 430 758 l 567 758 "},"u":{"ha":883,"x_min":0,"x_max":0,"o":"m 628 758 l 869 758 l 743 0 l 513 0 l 536 141 l 528 141 b 272 -10 481 48 385 -10 b 59 275 116 -10 31 104 l 140 758 l 381 758 l 308 322 b 406 189 295 240 332 189 b 556 327 478 189 543 239 "},"ü":{"ha":883,"x_min":0,"x_max":0,"o":"m 628 758 l 869 758 l 743 0 l 513 0 l 536 141 l 528 141 b 272 -10 481 48 385 -10 b 59 275 116 -10 31 104 l 140 758 l 381 758 l 308 322 b 406 189 295 240 332 189 b 556 327 478 189 543 239 m 689 854 b 583 976 620 854 572 909 b 697 1068 592 1028 643 1068 b 800 947 766 1068 812 1014 b 689 854 793 895 743 854 m 381 854 b 275 976 313 854 265 909 b 390 1068 285 1028 335 1068 b 493 947 458 1068 504 1014 b 381 854 485 895 436 854 "},"v":{"ha":827,"x_min":0,"x_max":0,"o":"m 488 0 l 212 0 l 79 758 l 324 758 l 377 236 l 385 236 l 612 758 l 874 758 "},"w":{"ha":1198,"x_min":0,"x_max":0,"o":"m 84 758 l 326 758 l 347 272 l 354 272 l 544 758 l 780 758 l 812 276 l 818 276 l 998 758 l 1240 758 l 916 0 l 658 0 l 613 441 l 605 441 l 413 0 l 155 0 "},"x":{"ha":813,"x_min":0,"x_max":0,"o":"m 428 508 l 599 758 l 842 758 l 567 379 l 724 0 l 482 0 l 385 252 l 208 0 l -37 0 l 246 379 l 100 758 l 345 758 "},"y":{"ha":827,"x_min":0,"x_max":0,"o":"m 114 -284 b -30 -260 56 -284 5 -275 l 53 -85 b 204 -50 120 -108 170 -106 l 218 -27 l 79 758 l 323 758 l 372 217 l 380 217 l 612 758 l 874 758 l 452 -73 b 114 -284 388 -197 288 -284 "},"z":{"ha":812,"x_min":0,"x_max":0,"o":"m 39 138 l 461 565 l 463 570 l 123 570 l 155 758 l 782 758 l 758 607 l 364 192 l 362 187 l 699 187 l 669 0 l 17 0 "},"$":{"ha":917,"x_min":0,"x_max":0,"o":"m 363 -12 b 40 336 135 0 6 114 l 274 336 b 397 191 264 251 312 202 l 434 413 l 363 431 b 128 710 196 471 103 557 b 535 1022 157 887 323 1009 l 553 1136 l 634 1136 l 616 1022 b 909 705 825 1009 938 885 l 676 705 b 581 819 680 768 649 808 l 547 609 l 597 597 b 855 293 788 553 882 454 b 444 -12 825 111 673 0 l 425 -126 l 344 -126 m 478 192 b 608 293 552 203 599 242 b 511 394 616 341 584 370 l 478 192 m 501 820 b 384 727 432 810 392 774 b 469 628 373 679 408 649 "},"£":{"ha":952,"x_min":0,"x_max":0,"o":"m 37 0 l 71 198 l 143 198 b 204 298 182 211 197 249 l 218 405 l 102 405 l 134 592 l 242 592 l 259 731 b 630 1024 283 916 436 1024 b 913 735 842 1024 941 912 l 685 732 b 601 832 696 809 656 832 b 502 731 549 832 512 798 l 484 592 l 702 592 l 670 405 l 460 405 l 448 314 b 394 198 442 266 425 229 l 826 198 l 793 0 "},"€":{"ha":963,"x_min":0,"x_max":0,"o":"m 737 554 l 447 554 b 437 504 443 538 440 521 b 431 456 435 487 432 471 l 672 456 l 598 341 l 431 341 b 590 202 444 242 501 202 b 776 263 677 202 745 244 l 835 72 b 554 -14 753 15 656 -14 b 181 341 338 -14 195 113 l 36 341 l 96 456 l 184 456 b 190 504 185 472 188 487 b 200 554 193 521 197 538 l 72 554 l 131 666 l 234 666 b 726 1024 324 895 509 1024 b 981 937 832 1024 917 993 l 860 746 b 691 808 832 763 779 808 b 484 666 602 808 532 766 l 804 666 "},"&":{"ha":952,"x_min":0,"x_max":0,"o":"m 329 -15 b 33 268 116 -15 7 111 b 255 527 51 385 135 454 b 204 755 217 590 188 666 b 533 1025 229 905 362 1025 b 761 777 699 1025 784 912 b 588 542 746 682 684 603 l 527 503 l 648 336 b 720 510 683 386 709 444 l 914 510 b 764 175 893 375 842 259 l 891 0 l 646 0 l 599 62 b 329 -15 514 7 416 -15 m 352 391 b 266 284 305 360 274 325 b 376 176 257 219 299 176 b 492 204 413 176 453 185 m 491 663 b 573 762 544 693 567 729 b 502 833 580 797 558 833 b 402 751 451 833 408 799 b 439 633 397 713 413 676 "},"!":{"ha":472,"x_min":0,"x_max":0,"o":"m 325 309 l 123 309 l 217 1010 l 463 1010 m 182 -14 b 65 114 110 -14 59 42 b 206 240 71 184 134 240 b 321 114 274 240 327 183 b 182 -14 315 42 249 -14 "},"?":{"ha":807,"x_min":0,"x_max":0,"o":"m 259 330 b 425 599 287 497 339 548 b 556 737 492 639 547 677 b 469 835 566 796 526 835 b 337 725 409 835 349 794 l 110 725 b 502 1024 147 932 315 1024 b 806 748 703 1024 836 927 b 609 504 786 630 713 558 b 469 330 527 460 484 417 l 465 309 l 255 309 m 318 -14 b 201 114 247 -14 195 42 b 342 240 207 184 270 240 b 457 114 410 240 464 183 b 318 -14 451 42 385 -14 "},"(":{"ha":590,"x_min":0,"x_max":0,"o":"m 127 398 b 434 1019 167 642 265 844 l 667 1019 b 379 398 540 889 418 631 b 461 -224 339 165 377 -94 l 228 -224 b 127 398 118 -48 88 154 "},")":{"ha":590,"x_min":0,"x_max":0,"o":"m 469 398 b 163 -224 429 154 331 -48 l -71 -224 b 218 398 57 -94 178 165 b 135 1019 257 631 219 889 l 368 1019 b 469 398 478 844 509 642 "},"[":{"ha":590,"x_min":0,"x_max":0,"o":"m 246 1019 l 668 1019 l 638 842 l 450 842 l 304 -47 l 492 -47 l 462 -224 l 40 -224 "},"]":{"ha":590,"x_min":0,"x_max":0,"o":"m 350 -224 l -72 -224 l -41 -47 l 146 -47 l 292 842 l 105 842 l 135 1019 l 556 1019 "},"{":{"ha":590,"x_min":0,"x_max":0,"o":"m 462 -224 b 138 56 260 -224 97 -208 l 153 149 b 24 291 168 248 139 291 l 22 291 l 58 504 l 60 504 b 236 646 173 504 221 547 l 251 739 b 668 1019 292 1003 467 1019 l 638 842 b 479 711 520 842 494 800 l 458 585 b 239 408 446 510 399 439 l 235 387 b 397 211 385 357 409 286 l 376 84 b 492 -47 361 -5 374 -47 l 462 -224 "},"}":{"ha":590,"x_min":0,"x_max":0,"o":"m 135 1019 b 458 739 336 1019 499 1004 l 443 647 b 572 505 428 547 457 505 l 574 505 l 539 291 l 537 291 b 360 149 423 291 375 249 l 345 56 b -72 -224 304 -208 130 -224 l -41 -47 b 117 84 76 -47 103 -5 l 138 211 b 358 387 150 286 197 357 l 362 408 b 200 585 211 439 187 510 l 220 711 b 105 842 236 800 222 842 l 135 1019 "},"#":{"ha":910,"x_min":0,"x_max":0,"o":"m 517 241 l 339 241 l 295 0 l 118 0 l 162 241 l 27 241 l 61 418 l 194 418 l 225 592 l 91 592 l 124 769 l 257 769 l 301 1010 l 479 1010 l 435 769 l 613 769 l 656 1010 l 834 1010 l 790 769 l 925 769 l 892 592 l 758 592 l 727 418 l 862 418 l 828 241 l 694 241 l 651 0 l 473 0 m 549 418 l 581 592 l 403 592 l 371 418 "},"/":{"ha":557,"x_min":0,"x_max":0,"o":"m 132 -152 l -74 -152 l 451 1057 l 656 1057 "},"\\":{"ha":552,"x_min":0,"x_max":0,"o":"m 125 1057 l 325 1057 l 451 -152 l 251 -152 "},"-":{"ha":655,"x_min":0,"x_max":0,"o":"m 551 316 l 84 316 l 114 502 l 581 502 "},"'":{"ha":284,"x_min":0,"x_max":0,"o":"m 262 614 l 99 614 l 164 1010 l 327 1010 "},"\"":{"ha":540,"x_min":0,"x_max":0,"o":"m 262 614 l 99 614 l 164 1010 l 327 1010 m 518 614 l 354 614 l 419 1010 l 583 1010 "},",":{"ha":431,"x_min":0,"x_max":0,"o":"m 269 83 b 121 -247 235 -53 154 -189 l -31 -247 b 83 83 -8 -193 59 -51 l 94 138 l 283 138 "},".":{"ha":424,"x_min":0,"x_max":0,"o":"m 156 -14 b 39 114 85 -14 33 42 b 180 240 45 184 109 240 b 295 114 248 240 302 183 b 156 -14 289 42 223 -14 "},":":{"ha":424,"x_min":0,"x_max":0,"o":"m 156 -14 b 39 114 85 -14 33 42 b 180 240 45 184 109 240 b 295 114 248 240 302 183 b 156 -14 289 42 223 -14 m 243 506 b 125 634 171 506 119 562 b 266 760 132 704 195 760 b 382 634 334 760 388 703 b 243 506 375 562 309 506 "},";":{"ha":431,"x_min":0,"x_max":0,"o":"m 269 83 b 121 -247 235 -53 154 -189 l -31 -247 b 83 83 -8 -193 59 -51 l 94 138 l 283 138 m 245 506 b 128 634 174 506 122 562 b 269 760 134 704 197 760 b 384 634 337 760 391 703 b 245 506 378 562 312 506 "},"<":{"ha":953,"x_min":0,"x_max":0,"o":"m 142 510 l 905 810 l 868 585 l 374 412 l 373 402 l 809 229 l 771 5 l 108 305 "},">":{"ha":953,"x_min":0,"x_max":0,"o":"m 62 5 l 100 229 l 592 403 l 594 412 l 158 585 l 195 810 l 861 510 l 827 305 "},"=":{"ha":953,"x_min":0,"x_max":0,"o":"m 116 336 l 822 336 l 790 139 l 85 139 m 174 676 l 879 676 l 845 478 l 140 478 "},"+":{"ha":953,"x_min":0,"x_max":0,"o":"m 365 308 l 107 308 l 141 507 l 398 507 l 440 764 l 640 764 l 597 507 l 855 507 l 821 308 l 564 308 l 522 50 l 323 50 "},"~":{"ha":953,"x_min":0,"x_max":0,"o":"m 85 263 b 353 574 109 459 208 574 b 524 490 414 574 461 552 b 605 440 554 459 571 440 b 700 553 650 440 688 474 l 879 553 b 610 243 854 359 750 243 b 438 327 544 243 497 269 b 357 376 404 361 391 376 b 264 263 313 376 275 344 l 85 263 "},"_":{"ha":673,"x_min":0,"x_max":0,"o":"m 581 -177 l -92 -177 l -64 0 l 611 0 "},"^":{"ha":686,"x_min":0,"x_max":0,"o":"m 354 991 l 536 991 l 673 552 l 507 552 l 430 837 l 421 837 l 253 552 l 72 552 "},"*":{"ha":814,"x_min":0,"x_max":0,"o":"m 390 624 l 220 520 l 169 648 l 346 726 l 194 804 l 289 932 l 423 828 l 439 1010 l 584 1010 l 540 828 l 709 932 l 760 804 l 583 726 l 735 648 l 641 520 l 507 624 l 490 442 l 344 442 "},"°":{"ha":641,"x_min":0,"x_max":0,"o":"m 385 522 b 137 769 248 522 137 632 b 385 1017 137 906 248 1017 b 632 769 521 1017 632 906 b 385 522 632 632 521 522 m 385 676 b 478 769 436 676 478 717 b 385 863 478 821 436 863 b 291 769 333 863 291 821 b 385 676 291 717 333 676 "},"§":{"ha":843,"x_min":0,"x_max":0,"o":"m 567 756 b 485 825 575 795 546 825 b 390 767 445 825 396 813 b 464 682 381 724 429 693 l 640 602 b 761 371 689 581 803 522 b 622 247 736 285 656 256 l 617 245 b 676 54 668 194 689 133 b 327 -204 649 -105 504 -204 b 53 73 136 -204 25 -94 l 262 73 b 364 -3 254 22 291 -7 b 465 54 406 -1 457 14 b 392 139 471 97 423 124 l 218 217 b 93 450 165 238 52 297 b 236 574 117 537 193 563 l 236 575 b 180 767 190 626 166 687 b 519 1024 204 914 344 1024 b 776 756 699 1024 801 910 m 564 357 b 503 433 575 382 558 410 l 358 495 b 289 464 327 508 299 492 b 352 388 278 439 297 409 l 499 325 b 564 357 525 314 553 328 "},"%":{"ha":1215,"x_min":0,"x_max":0,"o":"m 618 243 b 887 474 641 367 739 474 b 1080 243 1038 474 1104 368 l 1070 189 b 800 -42 1048 65 950 -42 b 609 189 651 -42 585 65 m 189 821 b 458 1053 208 947 312 1053 b 652 821 609 1053 670 947 l 644 767 b 374 538 625 641 523 538 b 182 767 224 538 163 642 m 988 1010 l 1130 1010 l 268 0 l 126 0 m 766 189 b 824 100 758 147 768 100 b 911 189 881 100 903 146 l 921 243 b 864 334 930 287 923 334 b 776 243 808 334 784 287 m 340 767 b 397 678 334 724 342 678 b 484 767 454 678 478 724 l 492 821 b 435 912 499 865 494 912 b 348 821 379 912 355 863 "},"`":{"ha":690,"x_min":0,"x_max":0,"o":"m 304 1076 l 517 1076 l 581 854 l 417 854 "}}}
